# xmcd
#
# Track frame offsets: 
#        150
#        16185
#        37289
#        48832
#        74895
#        91201
#        106268
#        122878
#        155991
#        177341
#        194039
#        219385
#        238613
#        263958
#        282144
#
# Disc length: 3993 seconds
#
# Revision: 0
# Processed by: cddbd v1.5.2PL0 Copyright (c) Steve Scherf et al.
# Submitted via: ExactAudioCopy v0.99pb5
#
DISCID=e50f970f
DTITLE=Wielka Lodz Blues Band  CD1 - Walk On 1984-2012
DYEAR=2012
DGENRE=Blues
TTITLE0=01.Wstawaj Maly,Wstawaj
TTITLE1=02.I Ain`t Superstitious
TTITLE2=03.Mowisz,Ciagle Mowisz
TTITLE3=04.In The Mood
TTITLE4=05.You Know,I Know
TTITLE5=06.Evil
TTITLE6=07.Let`s Go Out Tonight
TTITLE7=08.Tak Malo Mam
TTITLE8=09.Talk To Your Daughter
TTITLE9=10.Dimples
TTITLE10=11.Everybody Rockin`
TTITLE11=12.Help Me
TTITLE12=13.Will The Circle Be Unbroken
TTITLE13=14.Corrine,Corrina
TTITLE14=15.Blues Have A Baby
EXTD=
EXTT0=
EXTT1=
EXTT2=
EXTT3=
EXTT4=
EXTT5=
EXTT6=
EXTT7=
EXTT8=
EXTT9=
EXTT10=
EXTT11=
EXTT12=
EXTT13=
EXTT14=
PLAYORDER=
